# xmcd
#
# Track frame offsets:
#	150
#	20757
#	37715
#	52905
#	70342
#	85952
#	107947
#	122040
#	139297
#	155712
#	172575
#	186872
#	222334
#	236887
#	250702
#	262530
#
# Disc length: 3749 seconds
#
# Revision: 3
# Processed by: cddbd v1.5.2PL0 Copyright (c) Steve Scherf et al.
# Submitted via: audiograbber 1.80.04
#
DISCID=d80ea310
DTITLE=Jorge Benjor - Pérolas
DYEAR=2000
DGENRE=MPB
TTITLE0=I've Brussel
TTITLE1=O Dia Que o Sol Declarou o Seu Amor Pela Terra
TTITLE2=Pelos Verdes Mares
TTITLE3=A Banda do Zé Pretinho
TTITLE4=Santa Clara Clareou
TTITLE5=Rio Babilônia
TTITLE6=Waldomiro Pena
TTITLE7=Bom Dia, Boa Tarde, Boa Noite Amor
TTITLE8=Senhora Dona da Casa
TTITLE9=Curumim chama Cunhantã Que Eu Vou Contar (Todo Dia Era Dia de Índio)
TTITLE10=Oé Oé (Faz Um Carro de Boi Na Estrada)
TTITLE11=Taj Mahal - Fio Maravilha - País Tropical
TTITLE12=A Cegonha Me Deixou Em Madureira
TTITLE13=Roberto Corta Essa
TTITLE14=Berenice
TTITLE15=Salve Simpatia
EXTD=dayvisondj@hotmail.com\nDayvison DJ Is Of Recife - PE - Brazil\n8690-4073
EXTT0=
EXTT1=
EXTT2=
EXTT3=
EXTT4=
EXTT5=
EXTT6=
EXTT7=
EXTT8=
EXTT9=
EXTT10=
EXTT11=
EXTT12=
EXTT13=
EXTT14=
EXTT15=
PLAYORDER=
